<mxfile host="app.diagrams.net" modified="2020-07-10T11:49:54.714Z" agent="5.0 (Windows NT 10.0; Win64; x64) AppleWebKit/537.36 (KHTML, like Gecko) Chrome/83.0.4103.97 Safari/537.36" etag="qllH_y-eX_MjOQcP730S" version="13.3.3" type="github">
  <diagram id="rLRhBH3V_J7ePno-J1ZV" name="Page-1">
    <mxGraphModel dx="1422" dy="762" grid="1" gridSize="10" guides="1" tooltips="1" connect="1" arrows="1" fold="1" page="1" pageScale="1" pageWidth="827" pageHeight="1169" math="0" shadow="0">
      <root>
        <mxCell id="0" />
        <mxCell id="1" parent="0" />
        <mxCell id="dHr3vNGrXW-2QTDGSqE3-15" value="IMBOR" style="rounded=0;whiteSpace=wrap;html=1;fontSize=12;align=left;" vertex="1" parent="1">
          <mxGeometry x="530" y="290" width="180" height="130" as="geometry" />
        </mxCell>
        <mxCell id="dHr3vNGrXW-2QTDGSqE3-14" value="GWSW" style="rounded=0;whiteSpace=wrap;html=1;fontSize=12;align=left;" vertex="1" parent="1">
          <mxGeometry x="50" y="290" width="470" height="130" as="geometry" />
        </mxCell>
        <mxCell id="dHr3vNGrXW-2QTDGSqE3-13" value="SOR" style="rounded=0;whiteSpace=wrap;html=1;fontSize=12;align=left;" vertex="1" parent="1">
          <mxGeometry x="50" y="110" width="660" height="150" as="geometry" />
        </mxCell>
        <mxCell id="dHr3vNGrXW-2QTDGSqE3-3" value="" style="edgeStyle=orthogonalEdgeStyle;rounded=0;orthogonalLoop=1;jettySize=auto;html=1;" edge="1" parent="1" source="dHr3vNGrXW-2QTDGSqE3-1" target="dHr3vNGrXW-2QTDGSqE3-2">
          <mxGeometry relative="1" as="geometry" />
        </mxCell>
        <mxCell id="dHr3vNGrXW-2QTDGSqE3-1" value="IMGeo:&lt;br&gt;Put" style="ellipse;whiteSpace=wrap;html=1;aspect=fixed;fontSize=12;" vertex="1" parent="1">
          <mxGeometry x="110" y="120" width="80" height="80" as="geometry" />
        </mxCell>
        <mxCell id="dHr3vNGrXW-2QTDGSqE3-5" value="" style="edgeStyle=orthogonalEdgeStyle;rounded=0;orthogonalLoop=1;jettySize=auto;html=1;fontSize=10;" edge="1" parent="1" source="dHr3vNGrXW-2QTDGSqE3-2" target="dHr3vNGrXW-2QTDGSqE3-4">
          <mxGeometry relative="1" as="geometry" />
        </mxCell>
        <mxCell id="dHr3vNGrXW-2QTDGSqE3-2" value="GWSW:&lt;br style=&quot;font-size: 12px&quot;&gt;Rioolput" style="ellipse;whiteSpace=wrap;html=1;aspect=fixed;fontSize=10;" vertex="1" parent="1">
          <mxGeometry x="110" y="330" width="80" height="80" as="geometry" />
        </mxCell>
        <mxCell id="dHr3vNGrXW-2QTDGSqE3-7" value="" style="edgeStyle=orthogonalEdgeStyle;rounded=0;orthogonalLoop=1;jettySize=auto;html=1;fontSize=10;" edge="1" parent="1" source="dHr3vNGrXW-2QTDGSqE3-4" target="dHr3vNGrXW-2QTDGSqE3-6">
          <mxGeometry relative="1" as="geometry" />
        </mxCell>
        <mxCell id="dHr3vNGrXW-2QTDGSqE3-4" value="GWSW:&lt;br style=&quot;font-size: 12px;&quot;&gt;Rioolstelsel" style="ellipse;whiteSpace=wrap;html=1;aspect=fixed;fontSize=12;" vertex="1" parent="1">
          <mxGeometry x="260" y="330" width="80" height="80" as="geometry" />
        </mxCell>
        <mxCell id="dHr3vNGrXW-2QTDGSqE3-9" value="" style="edgeStyle=orthogonalEdgeStyle;rounded=0;orthogonalLoop=1;jettySize=auto;html=1;fontSize=12;" edge="1" parent="1" source="dHr3vNGrXW-2QTDGSqE3-6" target="dHr3vNGrXW-2QTDGSqE3-8">
          <mxGeometry relative="1" as="geometry" />
        </mxCell>
        <mxCell id="dHr3vNGrXW-2QTDGSqE3-6" value="GWSW:&lt;br style=&quot;font-size: 12px;&quot;&gt;Overstortput" style="ellipse;whiteSpace=wrap;html=1;aspect=fixed;fontSize=12;" vertex="1" parent="1">
          <mxGeometry x="400" y="330" width="80" height="80" as="geometry" />
        </mxCell>
        <mxCell id="dHr3vNGrXW-2QTDGSqE3-11" value="" style="edgeStyle=orthogonalEdgeStyle;rounded=0;orthogonalLoop=1;jettySize=auto;html=1;fontSize=12;startArrow=classic;startFill=1;endArrow=none;endFill=0;" edge="1" parent="1" source="dHr3vNGrXW-2QTDGSqE3-8" target="dHr3vNGrXW-2QTDGSqE3-10">
          <mxGeometry relative="1" as="geometry" />
        </mxCell>
        <mxCell id="dHr3vNGrXW-2QTDGSqE3-8" value="BGT:&lt;br&gt;Terreindeel" style="ellipse;whiteSpace=wrap;html=1;aspect=fixed;fontSize=12;" vertex="1" parent="1">
          <mxGeometry x="400" y="120" width="80" height="80" as="geometry" />
        </mxCell>
        <mxCell id="dHr3vNGrXW-2QTDGSqE3-10" value="IMBOR:&lt;br&gt;Aanvullende&lt;br&gt;informatie" style="ellipse;whiteSpace=wrap;html=1;aspect=fixed;fontSize=12;" vertex="1" parent="1">
          <mxGeometry x="590" y="330" width="80" height="80" as="geometry" />
        </mxCell>
        <mxCell id="dHr3vNGrXW-2QTDGSqE3-12" value="Linkset tussen &lt;br&gt;SOR en GWSW" style="rounded=0;whiteSpace=wrap;html=1;fontSize=12;" vertex="1" parent="1">
          <mxGeometry x="100" y="250" width="120" height="50" as="geometry" />
        </mxCell>
        <mxCell id="dHr3vNGrXW-2QTDGSqE3-17" value="URI Referentie in Organisatie Graph" style="rounded=0;whiteSpace=wrap;html=1;fontSize=12;" vertex="1" parent="1">
          <mxGeometry x="560" y="280" width="120" height="40" as="geometry" />
        </mxCell>
      </root>
    </mxGraphModel>
  </diagram>
</mxfile>
